<svg width="215" height="40" viewBox="0 0 215 40" fill="none" xmlns="http://www.w3.org/2000/svg">
<path d="M56.2344 22.4785H58.1094C58.0117 23.377 57.7546 24.181 57.3379 24.8906C56.9212 25.6003 56.332 26.1634 55.5703 26.5801C54.8086 26.9902 53.8581 27.1953 52.7188 27.1953C51.8854 27.1953 51.127 27.0391 50.4434 26.7266C49.7663 26.4141 49.1836 25.9714 48.6953 25.3984C48.207 24.819 47.8294 24.1257 47.5625 23.3184C47.3021 22.5046 47.1719 21.5996 47.1719 20.6035V19.1875C47.1719 18.1914 47.3021 17.2897 47.5625 16.4824C47.8294 15.6686 48.2103 14.972 48.7051 14.3926C49.2064 13.8132 49.8086 13.3672 50.5117 13.0547C51.2148 12.7422 52.0059 12.5859 52.8848 12.5859C53.959 12.5859 54.8672 12.7878 55.6094 13.1914C56.3516 13.5951 56.9277 14.1549 57.3379 14.8711C57.7546 15.5807 58.0117 16.4043 58.1094 17.3418H56.2344C56.1432 16.6777 55.974 16.1081 55.7266 15.6328C55.4792 15.151 55.1276 14.7799 54.6719 14.5195C54.2161 14.2591 53.6204 14.1289 52.8848 14.1289C52.2533 14.1289 51.6966 14.2493 51.2148 14.4902C50.7396 14.7311 50.3392 15.0729 50.0137 15.5156C49.6947 15.9583 49.4538 16.4889 49.291 17.1074C49.1283 17.7259 49.0469 18.4128 49.0469 19.168V20.6035C49.0469 21.3001 49.1185 21.9544 49.2617 22.5664C49.4115 23.1784 49.6361 23.7155 49.9355 24.1777C50.235 24.64 50.6159 25.0046 51.0781 25.2715C51.5404 25.5319 52.0872 25.6621 52.7188 25.6621C53.5195 25.6621 54.1576 25.5352 54.6328 25.2812C55.1081 25.0273 55.4661 24.6628 55.707 24.1875C55.9544 23.7122 56.1302 23.1426 56.2344 22.4785ZM66.8691 24.5586V16.4336H68.6855V27H66.957L66.8691 24.5586ZM67.2109 22.332L67.9629 22.3125C67.9629 23.0156 67.888 23.6667 67.7383 24.2656C67.5951 24.8581 67.3607 25.3724 67.0352 25.8086C66.7096 26.2448 66.2832 26.5866 65.7559 26.834C65.2285 27.0749 64.5872 27.1953 63.832 27.1953C63.3177 27.1953 62.8457 27.1204 62.416 26.9707C61.9928 26.821 61.6283 26.5898 61.3223 26.2773C61.0163 25.9648 60.7786 25.5579 60.6094 25.0566C60.4466 24.5553 60.3652 23.9531 60.3652 23.25V16.4336H62.1719V23.2695C62.1719 23.7448 62.224 24.1387 62.3281 24.4512C62.4388 24.7572 62.5853 25.0013 62.7676 25.1836C62.9564 25.3594 63.1647 25.4831 63.3926 25.5547C63.627 25.6263 63.8678 25.6621 64.1152 25.6621C64.8835 25.6621 65.4922 25.5156 65.9414 25.2227C66.3906 24.9232 66.7129 24.5228 66.9082 24.0215C67.11 23.5137 67.2109 22.9505 67.2109 22.332ZM73.2461 18.0938V27H71.4395V16.4336H73.1973L73.2461 18.0938ZM76.5469 16.375L76.5371 18.0547C76.3874 18.0221 76.2441 18.0026 76.1074 17.9961C75.9772 17.9831 75.8275 17.9766 75.6582 17.9766C75.2415 17.9766 74.8737 18.0417 74.5547 18.1719C74.2357 18.3021 73.9655 18.4844 73.7441 18.7188C73.5228 18.9531 73.347 19.2331 73.2168 19.5586C73.0931 19.8776 73.0117 20.2292 72.9727 20.6133L72.4648 20.9062C72.4648 20.2682 72.5267 19.6693 72.6504 19.1094C72.7806 18.5495 72.9792 18.0547 73.2461 17.625C73.513 17.1888 73.8516 16.8503 74.2617 16.6094C74.6784 16.362 75.1732 16.2383 75.7461 16.2383C75.8763 16.2383 76.026 16.2546 76.1953 16.2871C76.3646 16.3132 76.4818 16.3424 76.5469 16.375ZM80.0234 18.0938V27H78.2168V16.4336H79.9746L80.0234 18.0938ZM83.3242 16.375L83.3145 18.0547C83.1647 18.0221 83.0215 18.0026 82.8848 17.9961C82.7546 17.9831 82.6048 17.9766 82.4355 17.9766C82.0189 17.9766 81.651 18.0417 81.332 18.1719C81.013 18.3021 80.7428 18.4844 80.5215 18.7188C80.3001 18.9531 80.1243 19.2331 79.9941 19.5586C79.8704 19.8776 79.7891 20.2292 79.75 20.6133L79.2422 20.9062C79.2422 20.2682 79.304 19.6693 79.4277 19.1094C79.5579 18.5495 79.7565 18.0547 80.0234 17.625C80.2904 17.1888 80.6289 16.8503 81.0391 16.6094C81.4557 16.362 81.9505 16.2383 82.5234 16.2383C82.6536 16.2383 82.8034 16.2546 82.9727 16.2871C83.1419 16.3132 83.2591 16.3424 83.3242 16.375ZM89.1836 27.1953C88.4479 27.1953 87.7806 27.0716 87.1816 26.8242C86.5892 26.5703 86.0781 26.2155 85.6484 25.7598C85.2253 25.304 84.8997 24.7637 84.6719 24.1387C84.444 23.5137 84.3301 22.8301 84.3301 22.0879V21.6777C84.3301 20.8184 84.457 20.0534 84.7109 19.3828C84.9648 18.7057 85.3099 18.1328 85.7461 17.6641C86.1823 17.1953 86.6771 16.8405 87.2305 16.5996C87.7839 16.3587 88.3568 16.2383 88.9492 16.2383C89.7044 16.2383 90.3555 16.3685 90.9023 16.6289C91.4557 16.8893 91.9082 17.2539 92.2598 17.7227C92.6113 18.1849 92.8717 18.7318 93.041 19.3633C93.2103 19.9883 93.2949 20.6719 93.2949 21.4141V22.2246H85.4043V20.75H91.4883V20.6133C91.4622 20.1445 91.3646 19.6888 91.1953 19.2461C91.0326 18.8034 90.7721 18.4388 90.4141 18.1523C90.056 17.8659 89.5677 17.7227 88.9492 17.7227C88.5391 17.7227 88.1615 17.8105 87.8164 17.9863C87.4714 18.1556 87.1751 18.4095 86.9277 18.748C86.6803 19.0866 86.4883 19.5 86.3516 19.9883C86.2148 20.4766 86.1465 21.0397 86.1465 21.6777V22.0879C86.1465 22.5892 86.2148 23.0612 86.3516 23.5039C86.4948 23.9401 86.6999 24.3242 86.9668 24.6562C87.2402 24.9883 87.569 25.2487 87.9531 25.4375C88.3438 25.6263 88.7865 25.7207 89.2812 25.7207C89.9193 25.7207 90.4596 25.5905 90.9023 25.3301C91.3451 25.0697 91.7324 24.7214 92.0645 24.2852L93.1582 25.1543C92.9303 25.4993 92.6406 25.8281 92.2891 26.1406C91.9375 26.4531 91.5046 26.707 90.9902 26.9023C90.4824 27.0977 89.8802 27.1953 89.1836 27.1953ZM97.2109 18.6895V27H95.4043V16.4336H97.1133L97.2109 18.6895ZM96.7812 21.3164L96.0293 21.2871C96.0358 20.5645 96.1432 19.8971 96.3516 19.2852C96.5599 18.6667 96.8529 18.1296 97.2305 17.6738C97.6081 17.2181 98.0573 16.8665 98.5781 16.6191C99.1055 16.3652 99.6882 16.2383 100.326 16.2383C100.847 16.2383 101.316 16.3099 101.732 16.4531C102.149 16.5898 102.504 16.8112 102.797 17.1172C103.096 17.4232 103.324 17.8203 103.48 18.3086C103.637 18.7904 103.715 19.3796 103.715 20.0762V27H101.898V20.0566C101.898 19.5033 101.817 19.0605 101.654 18.7285C101.492 18.39 101.254 18.1458 100.941 17.9961C100.629 17.8398 100.245 17.7617 99.7891 17.7617C99.3398 17.7617 98.9297 17.8561 98.5586 18.0449C98.194 18.2337 97.8783 18.4941 97.6113 18.8262C97.3509 19.1582 97.1458 19.5391 96.9961 19.9688C96.8529 20.3919 96.7812 20.8411 96.7812 21.3164ZM110.688 25.7109C111.117 25.7109 111.514 25.623 111.879 25.4473C112.243 25.2715 112.543 25.0306 112.777 24.7246C113.012 24.4121 113.145 24.0573 113.178 23.6602H114.896C114.864 24.2852 114.652 24.8678 114.262 25.4082C113.878 25.9421 113.373 26.375 112.748 26.707C112.123 27.0326 111.436 27.1953 110.688 27.1953C109.893 27.1953 109.2 27.0553 108.607 26.7754C108.021 26.4954 107.533 26.1113 107.143 25.623C106.758 25.1348 106.469 24.5749 106.273 23.9434C106.085 23.3053 105.99 22.6315 105.99 21.9219V21.5117C105.99 20.8021 106.085 20.1315 106.273 19.5C106.469 18.862 106.758 18.2988 107.143 17.8105C107.533 17.3223 108.021 16.9382 108.607 16.6582C109.2 16.3783 109.893 16.2383 110.688 16.2383C111.514 16.2383 112.237 16.4076 112.855 16.7461C113.474 17.0781 113.959 17.5339 114.311 18.1133C114.669 18.6862 114.864 19.3372 114.896 20.0664H113.178C113.145 19.6302 113.021 19.2363 112.807 18.8848C112.598 18.5332 112.312 18.2533 111.947 18.0449C111.589 17.8301 111.169 17.7227 110.688 17.7227C110.134 17.7227 109.669 17.8333 109.291 18.0547C108.92 18.2695 108.624 18.5625 108.402 18.9336C108.188 19.2982 108.031 19.7051 107.934 20.1543C107.842 20.597 107.797 21.0495 107.797 21.5117V21.9219C107.797 22.3841 107.842 22.8398 107.934 23.2891C108.025 23.7383 108.178 24.1452 108.393 24.5098C108.614 24.8743 108.91 25.1673 109.281 25.3887C109.659 25.6035 110.128 25.7109 110.688 25.7109ZM119.896 25.9062L122.836 16.4336H124.77L120.531 28.6309C120.434 28.8913 120.303 29.1712 120.141 29.4707C119.984 29.7767 119.783 30.0664 119.535 30.3398C119.288 30.6133 118.988 30.8346 118.637 31.0039C118.292 31.1797 117.878 31.2676 117.396 31.2676C117.253 31.2676 117.071 31.248 116.85 31.209C116.628 31.1699 116.472 31.1374 116.381 31.1113L116.371 29.6465C116.423 29.653 116.505 29.6595 116.615 29.666C116.732 29.679 116.814 29.6855 116.859 29.6855C117.27 29.6855 117.618 29.6302 117.904 29.5195C118.191 29.4154 118.432 29.2363 118.627 28.9824C118.829 28.735 119.001 28.3932 119.145 27.957L119.896 25.9062ZM117.738 16.4336L120.482 24.6367L120.951 26.541L119.652 27.2051L115.766 16.4336H117.738ZM135.59 25.7109C136.02 25.7109 136.417 25.623 136.781 25.4473C137.146 25.2715 137.445 25.0306 137.68 24.7246C137.914 24.4121 138.048 24.0573 138.08 23.6602H139.799C139.766 24.2852 139.555 24.8678 139.164 25.4082C138.78 25.9421 138.275 26.375 137.65 26.707C137.025 27.0326 136.339 27.1953 135.59 27.1953C134.796 27.1953 134.102 27.0553 133.51 26.7754C132.924 26.4954 132.436 26.1113 132.045 25.623C131.661 25.1348 131.371 24.5749 131.176 23.9434C130.987 23.3053 130.893 22.6315 130.893 21.9219V21.5117C130.893 20.8021 130.987 20.1315 131.176 19.5C131.371 18.862 131.661 18.2988 132.045 17.8105C132.436 17.3223 132.924 16.9382 133.51 16.6582C134.102 16.3783 134.796 16.2383 135.59 16.2383C136.417 16.2383 137.139 16.4076 137.758 16.7461C138.376 17.0781 138.861 17.5339 139.213 18.1133C139.571 18.6862 139.766 19.3372 139.799 20.0664H138.08C138.048 19.6302 137.924 19.2363 137.709 18.8848C137.501 18.5332 137.214 18.2533 136.85 18.0449C136.492 17.8301 136.072 17.7227 135.59 17.7227C135.036 17.7227 134.571 17.8333 134.193 18.0547C133.822 18.2695 133.526 18.5625 133.305 18.9336C133.09 19.2982 132.934 19.7051 132.836 20.1543C132.745 20.597 132.699 21.0495 132.699 21.5117V21.9219C132.699 22.3841 132.745 22.8398 132.836 23.2891C132.927 23.7383 133.08 24.1452 133.295 24.5098C133.516 24.8743 133.812 25.1673 134.184 25.3887C134.561 25.6035 135.03 25.7109 135.59 25.7109ZM141.352 21.834V21.6094C141.352 20.8477 141.462 20.1413 141.684 19.4902C141.905 18.8327 142.224 18.263 142.641 17.7812C143.057 17.293 143.562 16.9154 144.154 16.6484C144.747 16.375 145.411 16.2383 146.146 16.2383C146.889 16.2383 147.556 16.375 148.148 16.6484C148.747 16.9154 149.255 17.293 149.672 17.7812C150.095 18.263 150.417 18.8327 150.639 19.4902C150.86 20.1413 150.971 20.8477 150.971 21.6094V21.834C150.971 22.5957 150.86 23.3021 150.639 23.9531C150.417 24.6042 150.095 25.1738 149.672 25.6621C149.255 26.1439 148.751 26.5215 148.158 26.7949C147.572 27.0618 146.908 27.1953 146.166 27.1953C145.424 27.1953 144.757 27.0618 144.164 26.7949C143.572 26.5215 143.064 26.1439 142.641 25.6621C142.224 25.1738 141.905 24.6042 141.684 23.9531C141.462 23.3021 141.352 22.5957 141.352 21.834ZM143.158 21.6094V21.834C143.158 22.3613 143.22 22.8594 143.344 23.3281C143.467 23.7904 143.653 24.2005 143.9 24.5586C144.154 24.9167 144.47 25.1999 144.848 25.4082C145.225 25.61 145.665 25.7109 146.166 25.7109C146.661 25.7109 147.094 25.61 147.465 25.4082C147.842 25.1999 148.155 24.9167 148.402 24.5586C148.65 24.2005 148.835 23.7904 148.959 23.3281C149.089 22.8594 149.154 22.3613 149.154 21.834V21.6094C149.154 21.0885 149.089 20.597 148.959 20.1348C148.835 19.666 148.646 19.2526 148.393 18.8945C148.145 18.5299 147.833 18.2435 147.455 18.0352C147.084 17.8268 146.648 17.7227 146.146 17.7227C145.652 17.7227 145.215 17.8268 144.838 18.0352C144.467 18.2435 144.154 18.5299 143.9 18.8945C143.653 19.2526 143.467 19.666 143.344 20.1348C143.22 20.597 143.158 21.0885 143.158 21.6094ZM155.043 18.6895V27H153.236V16.4336H154.945L155.043 18.6895ZM154.613 21.3164L153.861 21.2871C153.868 20.5645 153.975 19.8971 154.184 19.2852C154.392 18.6667 154.685 18.1296 155.062 17.6738C155.44 17.2181 155.889 16.8665 156.41 16.6191C156.938 16.3652 157.52 16.2383 158.158 16.2383C158.679 16.2383 159.148 16.3099 159.564 16.4531C159.981 16.5898 160.336 16.8112 160.629 17.1172C160.928 17.4232 161.156 17.8203 161.312 18.3086C161.469 18.7904 161.547 19.3796 161.547 20.0762V27H159.73V20.0566C159.73 19.5033 159.649 19.0605 159.486 18.7285C159.324 18.39 159.086 18.1458 158.773 17.9961C158.461 17.8398 158.077 17.7617 157.621 17.7617C157.172 17.7617 156.762 17.8561 156.391 18.0449C156.026 18.2337 155.71 18.4941 155.443 18.8262C155.183 19.1582 154.978 19.5391 154.828 19.9688C154.685 20.3919 154.613 20.8411 154.613 21.3164ZM167.504 25.3691L170.395 16.4336H172.24L168.441 27H167.23L167.504 25.3691ZM165.092 16.4336L168.07 25.418L168.275 27H167.064L163.236 16.4336H165.092ZM178.227 27.1953C177.491 27.1953 176.824 27.0716 176.225 26.8242C175.632 26.5703 175.121 26.2155 174.691 25.7598C174.268 25.304 173.943 24.7637 173.715 24.1387C173.487 23.5137 173.373 22.8301 173.373 22.0879V21.6777C173.373 20.8184 173.5 20.0534 173.754 19.3828C174.008 18.7057 174.353 18.1328 174.789 17.6641C175.225 17.1953 175.72 16.8405 176.273 16.5996C176.827 16.3587 177.4 16.2383 177.992 16.2383C178.747 16.2383 179.398 16.3685 179.945 16.6289C180.499 16.8893 180.951 17.2539 181.303 17.7227C181.654 18.1849 181.915 18.7318 182.084 19.3633C182.253 19.9883 182.338 20.6719 182.338 21.4141V22.2246H174.447V20.75H180.531V20.6133C180.505 20.1445 180.408 19.6888 180.238 19.2461C180.076 18.8034 179.815 18.4388 179.457 18.1523C179.099 17.8659 178.611 17.7227 177.992 17.7227C177.582 17.7227 177.204 17.8105 176.859 17.9863C176.514 18.1556 176.218 18.4095 175.971 18.748C175.723 19.0866 175.531 19.5 175.395 19.9883C175.258 20.4766 175.189 21.0397 175.189 21.6777V22.0879C175.189 22.5892 175.258 23.0612 175.395 23.5039C175.538 23.9401 175.743 24.3242 176.01 24.6562C176.283 24.9883 176.612 25.2487 176.996 25.4375C177.387 25.6263 177.829 25.7207 178.324 25.7207C178.962 25.7207 179.503 25.5905 179.945 25.3301C180.388 25.0697 180.775 24.7214 181.107 24.2852L182.201 25.1543C181.973 25.4993 181.684 25.8281 181.332 26.1406C180.98 26.4531 180.548 26.707 180.033 26.9023C179.525 27.0977 178.923 27.1953 178.227 27.1953ZM186.254 18.0938V27H184.447V16.4336H186.205L186.254 18.0938ZM189.555 16.375L189.545 18.0547C189.395 18.0221 189.252 18.0026 189.115 17.9961C188.985 17.9831 188.835 17.9766 188.666 17.9766C188.249 17.9766 187.882 18.0417 187.562 18.1719C187.243 18.3021 186.973 18.4844 186.752 18.7188C186.531 18.9531 186.355 19.2331 186.225 19.5586C186.101 19.8776 186.02 20.2292 185.98 20.6133L185.473 20.9062C185.473 20.2682 185.535 19.6693 185.658 19.1094C185.788 18.5495 185.987 18.0547 186.254 17.625C186.521 17.1888 186.859 16.8503 187.27 16.6094C187.686 16.362 188.181 16.2383 188.754 16.2383C188.884 16.2383 189.034 16.2546 189.203 16.2871C189.372 16.3132 189.49 16.3424 189.555 16.375ZM196.137 16.4336V17.8203H190.424V16.4336H196.137ZM192.357 13.8652H194.164V24.3828C194.164 24.7409 194.219 25.0111 194.33 25.1934C194.441 25.3757 194.584 25.4961 194.76 25.5547C194.936 25.6133 195.124 25.6426 195.326 25.6426C195.476 25.6426 195.632 25.6296 195.795 25.6035C195.964 25.571 196.091 25.5449 196.176 25.5254L196.186 27C196.042 27.0456 195.854 27.0879 195.619 27.127C195.391 27.1725 195.115 27.1953 194.789 27.1953C194.346 27.1953 193.939 27.1074 193.568 26.9316C193.197 26.7559 192.901 26.4629 192.68 26.0527C192.465 25.6361 192.357 25.0762 192.357 24.373V13.8652ZM202.641 27.1953C201.905 27.1953 201.238 27.0716 200.639 26.8242C200.046 26.5703 199.535 26.2155 199.105 25.7598C198.682 25.304 198.357 24.7637 198.129 24.1387C197.901 23.5137 197.787 22.8301 197.787 22.0879V21.6777C197.787 20.8184 197.914 20.0534 198.168 19.3828C198.422 18.7057 198.767 18.1328 199.203 17.6641C199.639 17.1953 200.134 16.8405 200.688 16.5996C201.241 16.3587 201.814 16.2383 202.406 16.2383C203.161 16.2383 203.812 16.3685 204.359 16.6289C204.913 16.8893 205.365 17.2539 205.717 17.7227C206.068 18.1849 206.329 18.7318 206.498 19.3633C206.667 19.9883 206.752 20.6719 206.752 21.4141V22.2246H198.861V20.75H204.945V20.6133C204.919 20.1445 204.822 19.6888 204.652 19.2461C204.49 18.8034 204.229 18.4388 203.871 18.1523C203.513 17.8659 203.025 17.7227 202.406 17.7227C201.996 17.7227 201.618 17.8105 201.273 17.9863C200.928 18.1556 200.632 18.4095 200.385 18.748C200.137 19.0866 199.945 19.5 199.809 19.9883C199.672 20.4766 199.604 21.0397 199.604 21.6777V22.0879C199.604 22.5892 199.672 23.0612 199.809 23.5039C199.952 23.9401 200.157 24.3242 200.424 24.6562C200.697 24.9883 201.026 25.2487 201.41 25.4375C201.801 25.6263 202.243 25.7207 202.738 25.7207C203.376 25.7207 203.917 25.5905 204.359 25.3301C204.802 25.0697 205.189 24.7214 205.521 24.2852L206.615 25.1543C206.387 25.4993 206.098 25.8281 205.746 26.1406C205.395 26.4531 204.962 26.707 204.447 26.9023C203.939 27.0977 203.337 27.1953 202.641 27.1953ZM210.668 18.0938V27H208.861V16.4336H210.619L210.668 18.0938ZM213.969 16.375L213.959 18.0547C213.809 18.0221 213.666 18.0026 213.529 17.9961C213.399 17.9831 213.249 17.9766 213.08 17.9766C212.663 17.9766 212.296 18.0417 211.977 18.1719C211.658 18.3021 211.387 18.4844 211.166 18.7188C210.945 18.9531 210.769 19.2331 210.639 19.5586C210.515 19.8776 210.434 20.2292 210.395 20.6133L209.887 20.9062C209.887 20.2682 209.949 19.6693 210.072 19.1094C210.202 18.5495 210.401 18.0547 210.668 17.625C210.935 17.1888 211.273 16.8503 211.684 16.6094C212.1 16.362 212.595 16.2383 213.168 16.2383C213.298 16.2383 213.448 16.2546 213.617 16.2871C213.786 16.3132 213.904 16.3424 213.969 16.375Z" fill="white"/>
<path d="M15 25.6667C14.4477 25.6667 14 26.1144 14 26.6667C14 27.219 14.4477 27.6667 15 27.6667V25.6667ZM25 14.3333C25.5523 14.3333 26 13.8856 26 13.3333C26 12.781 25.5523 12.3333 25 12.3333V14.3333ZM19 30C19 30.5523 19.4477 31 20 31C20.5523 31 21 30.5523 21 30H19ZM21 10C21 9.44772 20.5523 9 20 9C19.4477 9 19 9.44772 19 10H21ZM34 20C34 27.732 27.732 34 20 34V36C28.8366 36 36 28.8366 36 20H34ZM20 34C12.268 34 6 27.732 6 20H4C4 28.8366 11.1634 36 20 36V34ZM6 20C6 12.268 12.268 6 20 6V4C11.1634 4 4 11.1634 4 20H6ZM20 6C27.732 6 34 12.268 34 20H36C36 11.1634 28.8366 4 20 4V6ZM18.3333 12.3333C17.6178 12.3333 16.5666 12.5398 15.6657 13.1885C14.7138 13.8739 14 15.0074 14 16.6667H16C16 15.6593 16.3974 15.1261 16.8343 14.8115C17.3222 14.4602 17.9378 14.3333 18.3333 14.3333V12.3333ZM14 16.6667C14 18.3259 14.7138 19.4595 15.6657 20.1449C16.5666 20.7936 17.6178 21 18.3333 21V19C17.9378 19 17.3222 18.8731 16.8343 18.5218C16.3974 18.2072 16 17.6741 16 16.6667H14ZM18.3333 21H21.6667V19H18.3333V21ZM21.6667 21C22.0622 21 22.6778 21.1269 23.1657 21.4782C23.6026 21.7928 24 22.3259 24 23.3333H26C26 21.6741 25.2862 20.5405 24.3343 19.8551C23.4334 19.2064 22.3822 19 21.6667 19V21ZM24 23.3333C24 24.3407 23.6026 24.8739 23.1657 25.1885C22.6778 25.5398 22.0622 25.6667 21.6667 25.6667V27.6667C22.3822 27.6667 23.4334 27.4602 24.3343 26.8115C25.2862 26.1261 26 24.9926 26 23.3333H24ZM21.6667 25.6667H20V27.6667H21.6667V25.6667ZM20 25.6667H15V27.6667H20V25.6667ZM25 12.3333H20V14.3333H25V12.3333ZM20 12.3333H18.3333V14.3333H20V12.3333ZM19 26.6667V30H21V26.6667H19ZM21 13.3333V10H19V13.3333H21Z" fill="white"/>
</svg>
