<svg width="19" height="17" viewBox="0 0 19 17" fill="none" xmlns="http://www.w3.org/2000/svg">
<g clip-path="url(#clip0_1217_543)">
<path d="M3.10002 10.964C2.85002 10.4716 2.24814 10.275 1.75567 10.525C1.26321 10.775 1.06665 11.3769 1.31665 11.8693L3.10002 10.964ZM5.80552 14.8681L5.36722 15.7669L5.36722 15.7669L5.80552 14.8681ZM11.0321 15.7195L10.909 14.7271L10.909 14.7271L11.0321 15.7195ZM18.8707 12.4653C19.3037 12.1225 19.3769 11.4935 19.0341 11.0605C18.6913 10.6275 18.0623 10.5543 17.6293 10.8971L18.8707 12.4653ZM17.25 15.7917C17.25 16.344 17.6977 16.7917 18.25 16.7917C18.8023 16.7917 19.25 16.344 19.25 15.7917H17.25ZM18.25 11.4167H19.25C19.25 10.8644 18.8023 10.4167 18.25 10.4167V11.4167ZM13.875 10.4167C13.3227 10.4167 12.875 10.8644 12.875 11.4167C12.875 11.969 13.3227 12.4167 13.875 12.4167V10.4167ZM15.9 6.036C16.15 6.52847 16.7519 6.72502 17.2443 6.47503C17.7368 6.22503 17.9333 5.62315 17.6834 5.13068L15.9 6.036ZM13.1945 2.13191L13.6328 1.23309L13.6328 1.23309L13.1945 2.13191ZM7.96786 1.28051L8.09103 2.2729L7.96786 1.28051ZM0.129309 4.53477C-0.303713 4.87756 -0.376854 5.50649 -0.0340556 5.93951C0.308742 6.37253 0.937669 6.44567 1.37069 6.10288L0.129309 4.53477ZM1.75 1.20834C1.75 0.656059 1.30228 0.208344 0.75 0.208344C0.197715 0.208344 -0.25 0.656059 -0.25 1.20834H1.75ZM0.75 5.58334H-0.25C-0.25 6.13563 0.197715 6.58334 0.75 6.58334L0.75 5.58334ZM5.125 6.58334C5.67728 6.58334 6.125 6.13563 6.125 5.58334C6.125 5.03106 5.67728 4.58334 5.125 4.58334V6.58334ZM1.31665 11.8693C2.1663 13.543 3.59635 14.9034 5.36722 15.7669L6.24383 13.9693C4.83167 13.2807 3.73678 12.2184 3.10002 10.964L1.31665 11.8693ZM5.36722 15.7669C7.13739 16.6301 9.16731 16.9586 11.1553 16.7119L10.909 14.7271C9.29542 14.9274 7.65668 14.6582 6.24383 13.9693L5.36722 15.7669ZM11.1553 16.7119C14.4441 16.3037 16.7504 14.1437 18.8707 12.4653L17.6293 10.8971C15.3026 12.7391 13.5064 14.4048 10.909 14.7271L11.1553 16.7119ZM19.25 15.7917V11.4167H17.25V15.7917H19.25ZM18.25 10.4167H13.875V12.4167H18.25V10.4167ZM17.6834 5.13068C16.8337 3.45697 15.4036 2.09663 13.6328 1.23309L12.7562 3.03074C14.1683 3.71936 15.2632 4.78165 15.9 6.036L17.6834 5.13068ZM13.6328 1.23309C11.8626 0.369883 9.83269 0.0414028 7.8447 0.288127L8.09103 2.2729C9.70458 2.07265 11.3433 2.34178 12.7562 3.03074L13.6328 1.23309ZM7.8447 0.288127C4.5559 0.696293 2.24958 2.85627 0.129309 4.53477L1.37069 6.10288C3.69739 4.26097 5.49363 2.59526 8.09103 2.2729L7.8447 0.288127ZM-0.25 1.20834V5.58334H1.75V1.20834H-0.25ZM0.75 6.58334H5.125V4.58334H0.75V6.58334Z" fill="#006CE0"/>
</g>
<defs>
<clipPath id="clip0_1217_543">
<rect width="19" height="17" fill="white"/>
</clipPath>
</defs>
</svg>
