<svg width="40" height="40" viewBox="0 0 40 40" fill="none" xmlns="http://www.w3.org/2000/svg">
<path d="M15 25.6667C14.4477 25.6667 14 26.1144 14 26.6667C14 27.219 14.4477 27.6667 15 27.6667V25.6667ZM25 14.3333C25.5523 14.3333 26 13.8856 26 13.3333C26 12.781 25.5523 12.3333 25 12.3333V14.3333ZM19 30C19 30.5523 19.4477 31 20 31C20.5523 31 21 30.5523 21 30H19ZM21 10C21 9.44772 20.5523 9 20 9C19.4477 9 19 9.44772 19 10H21ZM34 20C34 27.732 27.732 34 20 34V36C28.8366 36 36 28.8366 36 20H34ZM20 34C12.268 34 6 27.732 6 20H4C4 28.8366 11.1634 36 20 36V34ZM6 20C6 12.268 12.268 6 20 6V4C11.1634 4 4 11.1634 4 20H6ZM20 6C27.732 6 34 12.268 34 20H36C36 11.1634 28.8366 4 20 4V6ZM18.3333 12.3333C17.6178 12.3333 16.5666 12.5398 15.6657 13.1885C14.7138 13.8739 14 15.0074 14 16.6667H16C16 15.6593 16.3974 15.1261 16.8343 14.8115C17.3222 14.4602 17.9378 14.3333 18.3333 14.3333V12.3333ZM14 16.6667C14 18.3259 14.7138 19.4595 15.6657 20.1449C16.5666 20.7936 17.6178 21 18.3333 21V19C17.9378 19 17.3222 18.8731 16.8343 18.5218C16.3974 18.2072 16 17.6741 16 16.6667H14ZM18.3333 21H21.6667V19H18.3333V21ZM21.6667 21C22.0622 21 22.6778 21.1269 23.1657 21.4782C23.6026 21.7928 24 22.3259 24 23.3333H26C26 21.6741 25.2862 20.5405 24.3343 19.8551C23.4334 19.2064 22.3822 19 21.6667 19V21ZM24 23.3333C24 24.3407 23.6026 24.8739 23.1657 25.1885C22.6778 25.5398 22.0622 25.6667 21.6667 25.6667V27.6667C22.3822 27.6667 23.4334 27.4602 24.3343 26.8115C25.2862 26.1261 26 24.9926 26 23.3333H24ZM21.6667 25.6667H20V27.6667H21.6667V25.6667ZM20 25.6667H15V27.6667H20V25.6667ZM25 12.3333H20V14.3333H25V12.3333ZM20 12.3333H18.3333V14.3333H20V12.3333ZM19 26.6667V30H21V26.6667H19ZM21 13.3333V10H19V13.3333H21Z" fill="white"/>
</svg>
